<svg id="Layer_1" data-name="Layer 1" xmlns="http://www.w3.org/2000/svg" viewBox="0 0 41.34 37.02"><defs><style>.cls-1{fill:#fff;}</style></defs><title>Thumbs Down</title><path class="cls-1" d="M281.28,426.44a3.52,3.52,0,0,0,2.51,1h5.86v8.6a2.37,2.37,0,0,0,1.24,2.08l3.29,1.78a2.39,2.39,0,0,0,1.13.28,2.36,2.36,0,0,0,2.18-1.46l4.7-11.28H319l0-24.28H302.07v1.38H286.65a3.54,3.54,0,0,0-3.28,2.2L277.92,420a3.54,3.54,0,0,0,.77,3.86Zm35.9-.82H303.86V405h13.32v20.63Zm-37.6-4.94L285,407.46a1.74,1.74,0,0,1,1.62-1.08h15.42v19.31H301l-0.46,1.11-4.7,11.29a0.57,0.57,0,0,1-.34.32,0.56,0.56,0,0,1-.19,0,0.59,0.59,0,0,1-.28-0.07l-3.29-1.78a0.57,0.57,0,0,1-.3-0.5V425.68h-7.66a1.72,1.72,0,0,1-1.24-.51L280,422.58A1.75,1.75,0,0,1,279.58,420.68Z" transform="translate(-277.65 -403.19)"/></svg>