<svg id="Layer_1" data-name="Layer 1" xmlns="http://www.w3.org/2000/svg" viewBox="0 0 41.34 37.02"><defs><style>.cls-1{fill:#fff;}</style></defs><title>Thumbs Up</title><path class="cls-1" d="M315.37,417a3.52,3.52,0,0,0-2.51-1H307v-8.6a2.37,2.37,0,0,0-1.24-2.08l-3.29-1.78a2.39,2.39,0,0,0-1.13-.28,2.36,2.36,0,0,0-2.18,1.46l-4.7,11.28h-16.8l0,24.28h16.91v-1.38H310a3.54,3.54,0,0,0,3.28-2.2l5.44-13.22a3.54,3.54,0,0,0-.77-3.86Zm-35.9.82h13.32v20.63H279.47V417.8Zm37.6,4.94L311.62,436A1.74,1.74,0,0,1,310,437H294.58V417.73h1.07l0.46-1.11,4.7-11.29a0.57,0.57,0,0,1,.34-0.32,0.56,0.56,0,0,1,.19,0,0.59,0.59,0,0,1,.28.07l3.29,1.78a0.57,0.57,0,0,1,.3.5v10.39h7.66a1.72,1.72,0,0,1,1.24.51l2.58,2.58A1.75,1.75,0,0,1,317.07,422.73Z" transform="translate(-277.65 -403.19)"/></svg>