<svg id="Layer_1" data-name="Layer 1" xmlns="http://www.w3.org/2000/svg" viewBox="0 0 141.73 141.73"><defs><style>.cls-1{fill:#fff;}</style></defs><title>Watson White</title><path class="cls-1" d="M311.23,440.32c7.25-29.31,6.25-53-.39-55.83l-0.12,0-0.51,4.3h0.11c5,1.2,4,31.1-1.19,52.05s-18.2,47.54-22.75,45.18l-1.47,3.65c0.12,0,.23.12,0.36,0.15,6.94,2,18.71-20.15,26-49.46" transform="translate(-227.1 -350.39)"/><path class="cls-1" d="M319.13,482.28c-13.37-.28-29.92-8-43.85-21.82-21.47-21.27-28.66-49-16-61.72l3.2,3.17c-10.89,11-5.94,37.58,13.77,57.1s46.83,24.7,57.72,13.7l3.2,3.17c-4.44,4.49-10.76,6.54-18,6.4" transform="translate(-227.1 -350.39)"/><path class="cls-1" d="M320.44,394.32c8.4,0,15.51,2.62,20,8.08L337,405.27c-9.86-11.93-37.36-9.46-58.74,8.21s-28.68,44-18.82,55.89L256,472.23c-11.44-13.84-1.8-40.77,21.5-60,14.12-11.67,30.07-17.88,43-17.88" transform="translate(-227.1 -350.39)"/><path class="cls-1" d="M248.64,445.18c-2.53-3.14,17.22-13.68,48.21-18.56s50.86-.89,51,2.82l4.46-.67c-1.93-12.05-53.85-4-56.06-3.66s-54.12,8.67-52.22,20.74v0l4.58-.69h0" transform="translate(-227.1 -350.39)"/><path class="cls-1" d="M274.33,462.18a3.88,3.88,0,1,1,3.87-3.88,3.88,3.88,0,0,1-3.87,3.88" transform="translate(-227.1 -350.39)"/><path class="cls-1" d="M274.11,420.18a3.88,3.88,0,1,1,3.88-3.87,3.88,3.88,0,0,1-3.88,3.87" transform="translate(-227.1 -350.39)"/><path class="cls-1" d="M304.79,427.68a3,3,0,1,1,3-3,3,3,0,0,1-3,3" transform="translate(-227.1 -350.39)"/><path class="cls-1" d="M311.57,438a3.87,3.87,0,1,1,3.87-3.87,3.88,3.88,0,0,1-3.87,3.87" transform="translate(-227.1 -350.39)"/><path class="cls-1" d="M340.46,402.4c11.44,13.84,2.63,41.29-20.67,60.54s-52.39,23.14-63.84,9.29l3.48-2.87c6.72,11.26,36.14,8,57.52-9.64s29.74-45.17,20-54.46Z" transform="translate(-227.1 -350.39)"/><path class="cls-1" d="M337.15,475.88l-3.2-3.17c10.89-11,4.22-36.34-15.49-55.85s-45.11-25.95-56-14.95l-3.2-3.17c12.64-12.76,41.15-6.34,62.62,14.93s27.91,49.44,15.28,62.21" transform="translate(-227.1 -350.39)"/><path class="cls-1" d="M300.47,450.43c6.8-1,53.77-9.58,51.87-21.65h0l-4.45.67h0c0.08,3.44-17.67,11.74-48.63,16.62s-48.55,2.73-50.61-.87l-4.58.7c2.74,12,48.12,5.75,56.4,4.55" transform="translate(-227.1 -350.39)"/><path class="cls-1" d="M295.29,371.29v-18a2.91,2.91,0,0,1,5.83,0v18a2.91,2.91,0,1,1-5.83,0" transform="translate(-227.1 -350.39)"/><path class="cls-1" d="M326.86,381a2.91,2.91,0,0,1-1.66-2.63,2.83,2.83,0,0,1,.29-1.25l7.76-16.23a2.92,2.92,0,0,1,2.64-1.65,2.79,2.79,0,0,1,1.25.29,2.9,2.9,0,0,1,1.66,2.62,2.86,2.86,0,0,1-.28,1.26l-7.77,16.22a2.91,2.91,0,0,1-3.88,1.37" transform="translate(-227.1 -350.39)"/><path class="cls-1" d="M268.14,381a2.9,2.9,0,0,1-3.88-1.37l-7.76-16.22a2.85,2.85,0,0,1-.29-1.26,2.91,2.91,0,0,1,1.66-2.62,2.79,2.79,0,0,1,1.25-.29,2.92,2.92,0,0,1,2.63,1.65l7.76,16.23a2.91,2.91,0,0,1-1.37,3.88" transform="translate(-227.1 -350.39)"/><path class="cls-1" d="M348.18,399a2.87,2.87,0,0,1-.44-1.53,2.92,2.92,0,0,1,1.37-2.48l15.28-9.48a2.91,2.91,0,0,1,4,.93,2.89,2.89,0,0,1,.44,1.53,2.92,2.92,0,0,1-1.37,2.48L352.19,400a2.82,2.82,0,0,1-1.54.44,2.9,2.9,0,0,1-2.47-1.38" transform="translate(-227.1 -350.39)"/><path class="cls-1" d="M247.77,399a2.9,2.9,0,0,1-2.47,1.38,2.81,2.81,0,0,1-1.53-.44l-15.28-9.48a2.91,2.91,0,0,1-.94-4A2.89,2.89,0,0,1,230,385.1a2.94,2.94,0,0,1,1.54.44L246.83,395a2.93,2.93,0,0,1,1.37,2.48,2.85,2.85,0,0,1-.44,1.53" transform="translate(-227.1 -350.39)"/><path class="cls-1" d="M297.36,454.12a6.09,6.09,0,1,1,6.09-6.09,6.1,6.1,0,0,1-6.09,6.09" transform="translate(-227.1 -350.39)"/><path class="cls-1" d="M326.73,429.33a6.64,6.64,0,1,1,6.64-6.64,6.65,6.65,0,0,1-6.64,6.64" transform="translate(-227.1 -350.39)"/><path class="cls-1" d="M319.51,467.58a7.2,7.2,0,1,1,7.2-7.19,7.2,7.2,0,0,1-7.2,7.19" transform="translate(-227.1 -350.39)"/><path class="cls-1" d="M288.88,434.58a8.31,8.31,0,1,1,8.3-8.3,8.31,8.31,0,0,1-8.3,8.3" transform="translate(-227.1 -350.39)"/><path class="cls-1" d="M286.36,486c-5.9-3.26-2.58-30.68,2.6-51.64s15.48-46.62,21.26-45.59l0.51-4.3c-6.77-2.63-19.1,16.59-26.48,49.28-8,35.23-7.32,53.07.68,55.91l1.47-3.65h0" transform="translate(-227.1 -350.39)"/><path class="cls-1" d="M298.2,387a50.31,50.31,0,1,0,50.3,50.3A50.36,50.36,0,0,0,298.2,387m0,105.12A54.81,54.81,0,1,1,353,437.31a54.88,54.88,0,0,1-54.81,54.81" transform="translate(-227.1 -350.39)"/></svg>